<svg width="79" height="54" viewBox="0 0 79 54" fill="none" xmlns="http://www.w3.org/2000/svg">
<g id="&#208;&#155;&#208;&#158;&#208;&#147;&#208;&#158; &#208;&#154;&#208;&#158;&#208;&#157;&#208;&#162;&#208;&#163;&#208;&#160;">
<path id="Vector" d="M52.2592 54H0V0H52.2592V18.4758H49.8365V2.50333H2.42009V51.4967H49.8365V35.4035H52.2592V54Z" fill="white"/>
<path id="Vector_2" d="M10.6758 21.4543H13.1035V26.2353L16.5775 21.4543H19.4903L15.5008 26.5187L19.8077 32.428H16.7299L13.1035 27.2062V32.428H10.6758V21.4543Z" fill="white"/>
<path id="Vector_3" d="M26.1387 30.1663C28.0967 30.1663 29.1125 28.7362 29.1125 26.9413C29.1125 24.9943 27.8021 23.7164 26.1387 23.7164C24.4322 23.7164 23.1675 24.9943 23.1675 26.9413C23.1675 28.7651 24.4906 30.1663 26.1387 30.1663ZM26.1387 21.436C29.275 21.436 31.6164 23.5484 31.6164 26.9413C31.6164 30.1663 29.275 32.4466 26.1387 32.4466C23.005 32.4466 20.6636 30.3316 20.6636 26.9413C20.6636 23.8528 22.8577 21.436 26.1387 21.436Z" fill="white"/>
<path id="Vector_4" d="M41.8244 32.4277L36.7887 25.844V32.4277H34.5107V21.4565H36.4534L41.4917 28.0692L41.4867 21.4565H43.762L43.7671 32.4277H41.8244Z" fill="white"/>
<path id="Vector_5" d="M46.688 21.4543H55.4872V23.8055H52.3002V32.428H49.8725V23.8055H46.688V21.4543Z" fill="white"/>
<path id="Vector_6" d="M67.2621 27.7072C67.2621 31.0607 65.2001 32.4252 62.9247 32.4252C60.1948 32.4252 58.2979 30.8114 58.2979 27.597V21.4595H60.7256V27.0643C60.7256 28.7726 61.2258 30.0741 62.9247 30.0741C64.3951 30.0741 64.8344 28.9615 64.8344 27.206V21.4595H67.2621V27.7072Z" fill="white"/>
<path id="Vector_7" d="M72.6084 23.8421V26.2719H73.487C74.4139 26.2719 75.1402 25.9255 75.1402 25.0019C75.1402 24.3905 74.8406 23.8394 73.6724 23.8394C73.3067 23.8394 73.1087 23.8263 72.6084 23.8421ZM70.1807 32.4252V21.4595C70.7724 21.4595 73.487 21.4595 73.7918 21.4595C76.6893 21.4595 77.7203 22.9473 77.7203 24.9704C77.7203 27.0066 76.5064 27.8384 75.93 28.1376L79.0002 32.4252H76.057L73.5023 28.623H72.6084V32.4252H70.1807Z" fill="white"/>
</g>
</svg>
